<svg xmlns="http://www.w3.org/2000/svg" width="1365.333" height="1365.333" version="1.0" viewBox="0 0 1024 1024"><path d="M480.5 176.6c-55.3 2.6-112.7 12.2-152.6 25.4-75.3 25-115.1 69.5-124 138.5-1.6 13.2-1.4 45.5.6 62 3.3 28.1 8 47.4 21.5 87 15 44.3 49.2 115.2 78.8 163.5 16.7 27.3 46.8 70.3 69.6 99.5 35.2 45.1 66.5 74.8 92.4 87.9 16.9 8.5 27 11 44.2 11 11.5 0 15-.4 23.5-2.7 26.6-7.3 52.2-25.1 81.4-56.7 19.7-21.4 31.1-35.6 62.2-77.5 49.5-66.8 99.3-162.1 123.8-236.8 11.2-34.2 15.6-53.8 18.2-81.2 1.4-15.5.6-52.4-1.5-64-8.7-48.7-33.7-84.6-76.6-109.7-38.4-22.5-98.8-37.8-174.5-44.3-17.4-1.5-70.7-2.6-87-1.9zm258.6 161.6 15.9 10.2-4.2 7.6c-14.8 27.2-38.8 60.2-65.7 90.3l-12.8 14.3 8.9 11c16.8 20.7 29.6 39.9 46.7 70.1l9.2 16.2-8.7 12.3c-4.8 6.8-10.5 14.7-12.7 17.7l-3.9 5.3-7.8-15c-14.1-27.1-30.3-53-48.8-77.9l-10.6-14.1-8 7.2c-40.8 36.1-86.4 59.4-133.3 67.8-18.3 3.2-50.3 3.3-67.8 0-24.1-4.5-46.1-12.1-66.4-22.8-36.3-19.2-64.5-44.3-95.1-84.5l-7.9-10.3 2.6-3.6c39.8-53.6 89.2-88.5 141-99.4 52.1-10.9 105.9-2.3 153.9 24.7 25.3 14.2 45.1 29.1 71.6 53.8l11.6 10.9 9.5-10.2c23.7-25.7 40.1-47.7 57.7-77.7 4.5-7.7 8.5-14.1 8.7-14.1.3 0 7.7 4.6 16.4 10.2z"/><path d="M424.6 379.1c-28 4.9-56.6 18.3-80.3 37.5-8.7 7.1-29.3 27.7-29.3 29.3 0 1.3 25.8 26.1 34.3 33 19.1 15.5 43.5 29.3 63.6 36 47.9 15.9 101.3 9.8 149.3-17 16.7-9.4 38.7-25.1 52.3-37.3l4-3.6-8.5-8.1c-42.3-40.4-85.3-63.8-129.4-70.4-14.8-2.2-42-1.9-56 .6z"/></svg>